<svg width="145" height="282" viewBox="0 0 145 282" fill="none" xmlns="http://www.w3.org/2000/svg">
<rect width="144.147" height="282" fill="#111111"/>
<g clip-path="url(#clip0_1_414)">
<path d="M87.1303 54.9416C86.5868 55.3494 86.1792 55.8931 85.6358 56.3008C84.8205 56.8445 83.7336 56.5727 83.1901 55.893C82.7825 55.3494 82.5108 54.6698 82.1032 54.1261C82.1032 53.9902 81.9673 53.8542 81.9673 53.7183C81.6955 54.1261 81.4238 54.5338 81.2879 54.9416C80.0651 56.7086 78.4347 57.66 76.2608 57.66C74.7662 57.66 73.4075 57.3882 72.1847 56.4367C70.9619 55.4853 70.2825 54.1261 69.8749 52.6309C69.6032 51.6795 69.6032 50.728 69.4673 49.7765C69.4673 47.3299 69.4673 44.7474 69.4673 42.3008C69.4673 42.1649 69.4673 41.8931 69.4673 41.7571C70.4184 41.7571 71.3695 41.7571 72.4564 41.7571C72.4564 42.9804 72.4564 44.0678 72.4564 45.427C72.864 45.1552 73.1358 44.8834 73.4075 44.6115C75.4455 42.8445 78.2988 43.2523 80.3368 44.8834C81.8314 45.9707 82.3749 47.6018 82.6466 49.3688C82.7825 50.1843 82.9184 51.1358 83.1901 51.9513C83.326 52.3591 83.4618 52.7668 83.8695 52.9028C84.4129 53.1746 84.9564 53.0387 85.0923 52.495C85.4999 51.6795 85.7716 50.8639 86.0434 49.9125C86.451 48.4173 86.7227 46.7863 87.2662 45.2911C87.6738 43.796 88.6249 42.5727 90.1195 42.029C91.8858 41.3494 93.6521 41.4853 95.1466 42.7086C96.7771 43.9319 97.4564 45.6989 97.7282 47.6018C97.864 48.8251 97.9999 50.0484 97.9999 51.1358C97.9999 53.3105 97.5923 55.3494 96.3695 57.1164C94.8749 59.2911 92.2934 59.9707 89.9836 59.0193C88.8966 58.6115 88.2173 57.66 87.6738 56.5727C87.5379 56.029 87.2662 55.4853 87.1303 54.9416ZM95.1466 50.5921C95.1466 50.1843 95.1466 49.6406 95.0108 49.0969C94.8749 48.0096 94.6031 47.0581 94.0597 46.2426C93.3803 45.2911 91.8858 44.8834 90.9347 45.9707C90.3912 46.5144 90.1195 47.0581 89.8477 47.8736C89.576 48.8251 89.4401 49.7765 89.3042 50.8639C89.1684 52.0872 89.3042 53.3105 89.9836 54.5338C90.5271 55.4853 91.3423 56.029 92.4292 55.893C93.5162 55.7571 94.0597 55.0775 94.4673 54.262C95.0108 53.0387 95.0108 51.8154 95.1466 50.5921ZM72.864 50.5921C72.864 51.9513 73.4075 53.0387 74.6303 53.7183C75.7173 54.3979 77.4836 54.3979 78.5705 53.3105C79.7934 52.0872 80.0651 50.3202 79.2499 48.6892C78.2988 46.9222 76.3966 46.2426 74.6303 47.194C73.2716 48.1455 72.864 49.2329 72.864 50.5921Z" fill="white"/>
<path d="M79.2499 60.9223C79.2499 65.2718 79.2499 69.6213 79.2499 74.1068C79.5217 74.1068 79.6575 74.1068 79.9293 74.1068C82.7825 73.699 84.8206 71.7961 85.0923 68.9417C85.364 67.0388 84.9564 65.4078 84.1412 63.6408C83.8695 62.9612 83.326 62.2815 83.0543 61.6019C83.0543 61.466 82.9184 61.466 82.9184 61.3301C84.1412 61.3301 85.364 61.3301 86.5869 61.3301C86.8586 61.8738 87.2662 62.5534 87.538 63.233C88.489 65.1359 88.6249 67.3107 88.6249 69.3495C88.489 71.1165 88.0814 72.8835 86.8586 74.2427C85.364 76.1456 83.4619 77.233 81.0162 77.6408C80.3369 77.7767 79.5217 77.9126 78.7064 77.9126C77.2119 77.9126 75.5814 77.7767 74.2227 77.0971C72.3206 76.2815 70.826 75.0582 69.8749 73.2912C69.3314 72.2039 69.0597 71.1165 68.9238 70.0291C68.788 68.398 68.9238 66.767 69.7391 65.4077C70.6901 63.6407 72.1847 62.4175 73.951 61.7378C75.5814 61.0582 77.2119 60.9223 78.8423 61.0582C79.114 60.7864 79.1141 60.7864 79.2499 60.9223ZM76.9401 73.9708C76.9401 70.8446 76.9401 67.7184 76.9401 64.5922C75.4456 64.5922 74.0869 65.1359 73.2717 66.3592C72.1847 67.9903 72.1847 69.7573 72.9999 71.5242C73.8151 73.0194 75.1738 73.699 76.9401 73.9708Z" fill="white"/>
<path d="M69.4673 41.4854C69.4673 39.9902 69.4673 38.631 69.4673 37.1358C72.864 35.5048 76.3966 33.8737 80.0651 32.1067C76.5325 30.4756 72.9999 28.8446 69.4673 27.2135C69.4673 25.8543 69.4673 24.3591 69.4673 22.9999C78.9782 27.4853 88.489 31.9708 97.9999 36.4562C97.9999 37.8155 97.9999 39.1747 97.9999 40.6698C93.3803 38.4951 88.8966 36.3203 84.2771 34.2815C79.3858 36.5921 74.4945 39.0387 69.4673 41.4854Z" fill="white"/>
<path d="M87.2662 94.2234C88.2172 95.7186 89.0325 97.3496 88.489 99.1166C88.2172 99.9322 87.6738 100.34 86.8586 100.612C87.1303 101.02 87.2662 101.291 87.402 101.563C88.2172 102.922 88.6249 104.282 88.6249 105.913C88.489 108.223 86.9944 109.854 84.9564 110.262C82.9183 110.67 81.2879 109.719 79.9292 108.088C78.9781 106.728 78.4346 105.097 77.8912 103.466C77.6194 102.515 77.2118 101.699 76.9401 100.748C75.5814 100.748 74.3586 100.476 73.2716 101.699C72.7281 102.243 72.5922 102.922 72.5922 103.602C72.4564 105.369 73.1357 107 74.2227 108.359C74.6303 108.903 75.1738 109.447 75.8531 110.126C75.5814 110.126 75.4455 110.126 75.3096 110.126C74.3586 110.126 73.4075 110.126 72.4564 110.126C71.777 110.126 71.2336 109.854 70.8259 109.311C69.8749 108.088 69.3314 106.728 69.1955 105.097C69.0596 103.466 69.0596 101.835 69.739 100.34C70.5542 98.437 71.9129 97.3496 73.9509 97.0778C74.4944 97.0778 74.902 96.9419 75.4455 96.9419C78.5705 96.9419 81.5596 96.9419 84.6846 96.9419C84.9564 96.9419 85.2281 96.9419 85.6357 96.806C86.0433 96.67 86.3151 96.3982 86.0433 95.9904C85.9075 95.5827 85.6357 95.1749 85.364 94.6312C85.2281 94.4953 85.2281 94.3594 85.0922 94.0875C85.7716 94.2234 86.5868 94.2234 87.2662 94.2234ZM79.114 100.748C79.2499 101.155 79.3857 101.563 79.5216 101.835C79.9292 103.058 80.3368 104.282 81.152 105.369C81.9672 106.456 82.9183 106.728 84.277 106.456C84.6846 106.321 85.2281 106.049 85.4999 105.641C86.0433 104.961 86.1792 104.146 86.0433 103.194C85.9075 102.243 85.364 101.427 84.6846 100.748C82.7825 100.748 81.0162 100.748 79.114 100.748Z" fill="white"/>
<path d="M69.4676 80.4951C70.6904 80.4951 71.7773 80.4951 72.8643 80.4951C72.8643 82.534 72.8643 84.4369 72.8643 86.4757C73.136 86.4757 73.2719 86.4757 73.4078 86.4757C76.261 86.4757 79.2502 86.4757 82.1034 86.4757C82.7828 86.4757 83.3263 86.3398 84.0056 86.0679C84.9567 85.6602 85.3643 84.8446 85.3643 83.8932C85.3643 82.8058 85.0926 81.7184 84.685 80.631C84.5491 80.2233 84.2773 79.9514 84.1415 79.4077C85.3643 79.4077 86.4513 79.4077 87.6741 79.4077C88.0817 80.0874 88.4893 80.9029 88.6252 81.7184C89.0328 83.3495 89.0328 84.8446 88.6252 86.4757C87.9458 88.5145 86.5871 89.8738 84.4132 90.0097C83.1904 90.1456 82.1034 90.1456 80.8806 90.1456C78.435 90.1456 76.1252 90.1456 73.6795 90.1456C73.5436 90.1456 73.2719 90.1456 73.0002 90.1456C73.0002 91.233 73.0002 92.3204 73.0002 93.2718C72.5926 93.4077 72.4567 93.2718 72.3208 93.1359C70.9621 91.7767 69.7393 90.4175 68.3806 89.1942C67.5654 88.3786 66.7502 87.5631 65.935 86.7475C65.7991 86.6116 65.7991 86.4757 65.5273 86.3398C66.886 86.3398 68.1089 86.3398 69.4676 86.3398C69.4676 84.4369 69.4676 82.534 69.4676 80.4951Z" fill="white"/>
<path d="M84.1411 128.068C85.2281 128.068 86.4509 128.068 87.6737 128.068C87.8096 128.476 88.0813 129.019 88.3531 129.563C89.0324 131.602 89.1683 133.641 88.2172 135.68C87.402 137.447 86.0433 138.534 84.1411 138.67C80.6085 138.806 77.0759 138.806 73.5433 138.806C73.4074 138.806 73.1357 138.806 72.8639 138.806C72.8639 139.893 72.8639 140.98 72.8639 142.068C72.5922 141.932 72.3205 141.932 72.1846 141.796C70.0107 139.621 67.8368 137.447 65.527 135.136C65.527 135.136 65.527 135 65.3911 135C66.7498 135 67.9726 135 69.3313 135C69.3313 132.961 69.3313 131.058 69.3313 129.019C70.5542 129.019 71.6411 129.019 72.7281 129.019C72.7281 131.058 72.7281 132.961 72.7281 135C72.9998 135 73.1357 135 73.2715 135C75.9889 135 78.7063 135 81.5596 135C82.1031 135 82.7824 135 83.3259 134.864C84.8205 134.456 85.4998 133.369 85.2281 131.874C85.0922 131.194 84.9563 130.65 84.8205 129.971C84.8205 129.291 84.4129 128.747 84.1411 128.068Z" fill="white"/>
<path d="M69.4675 125.077C69.4675 123.854 69.4675 122.631 69.4675 121.272C70.6903 121.272 72.049 121.272 73.4077 121.272C73.2718 121.136 73.2718 121 73.1359 121C72.4566 120.456 71.6414 119.912 70.962 119.369C69.8751 118.281 68.924 117.194 69.0599 115.427C69.1957 114.34 69.4675 113.524 70.1468 112.709C70.4185 112.301 70.8262 111.893 71.2338 111.349C72.3207 112.029 73.4077 112.709 74.4946 113.388C74.087 113.932 73.8153 114.34 73.4077 114.883C72.7283 115.835 72.4566 116.922 72.8642 118.145C73.2718 119.233 74.087 120.048 75.174 120.592C76.1251 121.136 77.212 121.408 78.4349 121.408C81.5599 121.408 84.6849 121.408 87.8099 121.408C87.9457 121.408 88.2175 121.408 88.3533 121.408C88.3533 122.631 88.3533 123.99 88.3533 125.213C82.1033 125.077 75.8533 125.077 69.4675 125.077Z" fill="white"/>
<path d="M42.7012 135.815C42.7012 135.136 42.7012 134.592 42.7012 133.913C45.1468 133.913 47.4566 133.913 49.7664 133.913C49.7664 134.592 49.7664 135.136 49.7664 135.815C47.4566 135.815 45.011 135.815 42.7012 135.815Z" fill="white"/>
<path d="M35.3643 128.612C35.3643 126.165 35.3643 123.855 35.3643 121.544C36.0436 121.544 36.5871 121.544 37.2664 121.544C37.2664 123.855 37.2664 126.301 37.2664 128.612C36.723 128.612 36.0436 128.612 35.3643 128.612Z" fill="white"/>
<path d="M35.3643 141.117C36.0436 141.117 36.5871 141.117 37.2664 141.117C37.2664 143.427 37.2664 145.874 37.2664 148.185C36.5871 148.185 36.0436 148.185 35.3643 148.185C35.3643 145.874 35.3643 143.563 35.3643 141.117Z" fill="white"/>
<path d="M30.0652 133.913C30.0652 134.592 30.0652 135.136 30.0652 135.815C27.6196 135.815 25.3098 135.815 23 135.815C23 135.136 23 134.592 23 133.913C25.3098 133.913 27.7554 133.913 30.0652 133.913Z" fill="white"/>
<path d="M46.3696 126.165C44.7392 127.796 43.1088 129.427 41.4783 131.058C41.0707 130.65 40.6631 130.243 40.1196 129.835C41.7501 128.204 43.5164 126.437 45.1468 124.806C45.5544 125.213 45.962 125.621 46.3696 126.165Z" fill="white"/>
<path d="M27.6198 144.922C27.2122 144.515 26.8046 144.107 26.397 143.699C28.0274 142.068 29.6578 140.437 31.2883 138.67C31.6959 139.214 32.1035 139.621 32.5111 140.029C30.8807 141.66 29.2502 143.291 27.6198 144.922Z" fill="white"/>
<path d="M26.2607 126.165C26.6684 125.757 27.076 125.349 27.4836 124.942C29.114 126.573 30.7444 128.204 32.3749 129.835C31.9673 130.243 31.5597 130.65 31.152 131.058C29.6575 129.427 28.027 127.796 26.2607 126.165Z" fill="white"/>
<path d="M46.3696 143.699C45.962 144.107 45.5544 144.515 45.0109 144.922C43.3805 143.291 41.7501 141.66 40.1196 140.029C40.5272 139.621 40.9348 139.214 41.4783 138.67C43.1088 140.301 44.7392 142.068 46.3696 143.699Z" fill="white"/>
<path d="M87.9458 247C73.6795 247 59.0056 247 44.7393 247C44.7393 246.864 44.7393 246.592 44.7393 246.456C44.7393 243.466 44.7393 240.476 44.7393 237.621C44.8751 233.68 45.2827 229.738 46.9132 226.068C49.3588 220.359 53.7066 216.825 59.6849 215.33C62.5382 214.65 65.5273 214.515 68.3806 214.65C70.8262 214.786 73.136 215.194 75.4458 216.146C79.5219 217.777 82.6469 220.495 84.8208 224.301C86.4512 227.155 87.2664 230.282 87.5382 233.544C87.9458 236.67 87.9458 239.796 87.9458 243.058C87.9458 244.282 87.9458 245.505 87.9458 246.592C87.9458 246.728 87.9458 246.864 87.9458 247ZM80.3371 238.573C80.3371 238.437 80.3371 238.437 80.3371 238.301C80.3371 236.534 80.3371 234.903 80.0653 233.136C79.2501 229.058 77.0762 226.204 73.2719 224.437C71.3697 223.621 69.4675 223.35 67.4295 223.214C64.848 223.078 62.2664 223.35 59.8208 224.165C56.424 225.388 53.9784 227.835 52.7556 231.369C51.9403 233.68 51.9403 235.99 52.0762 238.301V238.437C61.4512 238.573 70.8262 238.573 80.3371 238.573Z" fill="white"/>
<path d="M44.6035 197.796C44.6035 197.66 44.6035 197.388 44.6035 197.252C44.6035 193.99 44.6035 190.728 44.6035 187.466C44.6035 184.476 45.147 181.485 46.5057 178.631C48.4079 175.097 51.397 173.058 55.3372 172.514C57.3753 172.243 59.5492 172.243 61.5872 172.786C64.7122 173.602 67.022 175.641 68.7883 178.495C70.0111 180.534 70.6905 182.844 70.8263 185.291C70.9622 186.514 70.9622 187.602 70.9622 188.825C70.9622 188.961 70.9622 189.097 70.9622 189.369C73.4079 189.369 75.8535 189.369 78.435 189.369C79.3861 192.223 80.4731 194.942 81.4242 197.796C69.06 197.796 56.8318 197.796 44.6035 197.796ZM51.397 189.369C55.609 189.369 59.8209 189.369 64.0329 189.369C64.0329 187.738 64.1687 186.107 63.6253 184.476C63.0818 182.844 61.9948 181.893 60.3644 181.485C58.734 181.077 57.1035 181.077 55.609 181.485C54.1144 181.893 53.0274 182.709 52.2122 184.068C51.397 185.699 51.397 187.466 51.397 189.369Z" fill="white"/>
<path d="M68.1086 162.592C66.3423 160.146 64.576 157.699 62.6738 155.253C62.8097 154.981 62.9456 154.709 63.2173 154.301C64.4401 152.126 65.7988 150.088 67.4293 148.321C69.3314 146.282 71.7771 145.058 74.6303 144.787C76.9401 144.515 79.114 144.787 81.288 145.602C84.5488 146.825 86.7227 149 87.8097 152.262C88.489 153.893 88.6249 155.66 88.7608 157.427C88.8967 159.874 88.7608 162.456 87.9456 164.767C87.1303 167.486 85.6358 169.932 83.1901 171.563C82.9184 171.699 82.6467 171.835 82.3749 172.107C80.4727 170.34 78.4347 168.573 76.5325 166.942C77.076 166.534 77.7553 166.262 78.163 165.855C80.201 164.088 81.4238 161.913 81.4238 159.194C81.4238 158.243 81.4238 157.291 81.0162 156.34C80.4727 154.709 79.114 153.621 77.3477 153.486C75.038 153.214 73.5434 154.301 72.1847 155.932C70.6901 157.835 69.4673 160.01 68.2445 162.185C68.2445 162.321 68.1086 162.456 68.1086 162.592Z" fill="white"/>
<path d="M49.2229 146.281C51.1251 147.912 52.8914 149.679 54.7935 151.31C54.2501 151.854 53.5707 152.126 53.1631 152.67C51.5327 154.437 50.7175 156.611 51.1251 159.058C51.6686 162.184 54.7935 163.543 57.5109 161.912C58.462 161.233 59.2772 160.417 59.9566 159.602C60.0925 159.466 60.2283 159.194 60.3642 158.922C62.2664 161.233 64.0327 163.543 65.6631 165.99C65.3914 166.398 64.9838 166.806 64.712 167.213C62.1305 170.068 58.8696 171.291 55.0653 171.291C49.7664 171.155 45.5544 167.893 44.1957 162.592C43.2446 159.194 43.2446 155.66 44.4675 152.262C45.2827 149.951 46.7772 148.048 48.6794 146.553C48.9512 146.417 49.087 146.417 49.2229 146.281Z" fill="white"/>
<path d="M84.9567 210.98C76.3969 210.98 68.1088 210.98 59.8208 210.98C59.8208 208.262 59.8208 205.679 59.8208 203.097C67.5654 203.097 75.3099 203.097 83.0545 203.097C83.598 205.679 84.2773 208.398 84.9567 210.98Z" fill="white"/>
<path d="M48.4077 202.417C50.9892 202.417 53.0272 204.456 53.0272 207.039C53.0272 209.621 50.9892 211.66 48.4077 211.66C45.8261 211.66 43.7881 209.621 43.7881 207.039C43.7881 204.456 45.8261 202.417 48.4077 202.417Z" fill="white"/>
<path d="M87.81 197.524C86.4513 197.524 85.0926 197.524 83.7339 197.524C82.9187 194.806 82.1034 192.088 81.1523 189.233C83.3263 189.233 85.5002 189.233 87.81 189.233C87.81 192.088 87.81 194.806 87.81 197.524Z" fill="white"/>
<path d="M86.7227 210.845C86.1792 208.262 85.6358 205.544 85.0923 202.961C86.0434 202.961 86.8586 202.961 87.8097 202.961C87.8097 205.544 87.8097 208.262 87.8097 210.845C87.5379 210.845 87.1303 210.845 86.7227 210.845Z" fill="white"/>
</g>
<defs>
<clipPath id="clip0_1_414">
<rect width="224" height="75" fill="white" transform="translate(23 247) rotate(-90)"/>
</clipPath>
</defs>
</svg>
