<svg width="224" height="75" viewBox="0 0 224 75" fill="none" xmlns="http://www.w3.org/2000/svg">
<g clip-path="url(#clip0_1_365)">
<path d="M192.058 64.1303C191.651 63.5868 191.107 63.1792 190.699 62.6358C190.155 61.8205 190.427 60.7336 191.107 60.1901C191.651 59.7825 192.33 59.5108 192.874 59.1032C193.01 59.1032 193.146 58.9673 193.282 58.9673C192.874 58.6955 192.466 58.4238 192.058 58.2879C190.291 57.0651 189.34 55.4347 189.34 53.2608C189.34 51.7662 189.612 50.4075 190.563 49.1847C191.515 47.9619 192.874 47.2825 194.369 46.8749C195.321 46.6032 196.272 46.6032 197.223 46.4673C199.67 46.4673 202.253 46.4673 204.699 46.4673C204.835 46.4673 205.107 46.4673 205.243 46.4673C205.243 47.4184 205.243 48.3695 205.243 49.4564C204.02 49.4564 202.932 49.4564 201.573 49.4564C201.845 49.864 202.117 50.1358 202.388 50.4075C204.155 52.4455 203.748 55.2988 202.117 57.3368C201.029 58.8314 199.398 59.3749 197.631 59.6466C196.816 59.7825 195.864 59.9184 195.049 60.1901C194.641 60.326 194.233 60.4618 194.097 60.8695C193.825 61.4129 193.961 61.9564 194.505 62.0923C195.321 62.4999 196.136 62.7716 197.088 63.0434C198.583 63.451 200.214 63.7227 201.709 64.2662C203.204 64.6738 204.427 65.6249 204.971 67.1195C205.651 68.8858 205.515 70.6521 204.291 72.1466C203.068 73.7771 201.301 74.4564 199.398 74.7282C198.175 74.864 196.952 74.9999 195.864 74.9999C193.689 74.9999 191.651 74.5923 189.884 73.3695C187.709 71.8749 187.029 69.2934 187.981 66.9836C188.389 65.8966 189.34 65.2173 190.427 64.6738C190.971 64.5379 191.515 64.2662 192.058 64.1303ZM196.408 72.1466C196.816 72.1466 197.359 72.1466 197.903 72.0108C198.99 71.8749 199.942 71.6031 200.757 71.0597C201.709 70.3803 202.117 68.8858 201.029 67.9347C200.486 67.3912 199.942 67.1195 199.126 66.8477C198.175 66.576 197.223 66.4401 196.136 66.3042C194.913 66.1684 193.689 66.3042 192.466 66.9836C191.515 67.5271 190.971 68.3423 191.107 69.4292C191.243 70.5162 191.922 71.0597 192.738 71.4673C193.961 72.0108 195.185 72.0108 196.408 72.1466ZM196.408 49.864C195.049 49.864 193.961 50.4075 193.282 51.6303C192.602 52.7173 192.602 54.4836 193.689 55.5705C194.913 56.7934 196.68 57.0651 198.311 56.2499C200.078 55.2988 200.757 53.3966 199.806 51.6303C198.855 50.2716 197.767 49.864 196.408 49.864Z" fill="white"/>
<path d="M186.078 56.2499C181.728 56.2499 177.379 56.2499 172.893 56.2499C172.893 56.5217 172.893 56.6575 172.893 56.9293C173.301 59.7825 175.204 61.8206 178.058 62.0923C179.961 62.364 181.592 61.9564 183.359 61.1412C184.039 60.8695 184.718 60.326 185.398 60.0543C185.534 60.0543 185.534 59.9184 185.67 59.9184C185.67 61.1412 185.67 62.364 185.67 63.5869C185.126 63.8586 184.447 64.2662 183.767 64.538C181.864 65.489 179.689 65.6249 177.651 65.6249C175.884 65.489 174.117 65.0814 172.757 63.8586C170.854 62.364 169.767 60.4619 169.359 58.0162C169.223 57.3369 169.087 56.5217 169.087 55.7064C169.087 54.2119 169.223 52.5814 169.903 51.2227C170.718 49.3206 171.942 47.826 173.709 46.8749C174.796 46.3314 175.884 46.0597 176.971 45.9238C178.602 45.788 180.233 45.9238 181.592 46.7391C183.359 47.6901 184.583 49.1847 185.262 50.951C185.942 52.5814 186.078 54.2119 185.942 55.8423C186.214 56.114 186.214 56.1141 186.078 56.2499ZM173.029 53.9401C176.155 53.9401 179.282 53.9401 182.408 53.9401C182.408 52.4456 181.864 51.0869 180.641 50.2717C179.01 49.1847 177.243 49.1847 175.476 49.9999C173.981 50.8151 173.301 52.1738 173.029 53.9401Z" fill="white"/>
<path d="M205.515 46.4673C207.01 46.4673 208.369 46.4673 209.864 46.4673C211.495 49.864 213.126 53.3966 214.893 57.0651C216.524 53.5325 218.155 49.9999 219.786 46.4673C221.146 46.4673 222.641 46.4673 224 46.4673C219.515 55.9782 215.029 65.489 210.544 74.9999C209.185 74.9999 207.825 74.9999 206.33 74.9999C208.505 70.3803 210.68 65.8966 212.719 61.2771C210.408 56.3858 207.961 51.4945 205.515 46.4673Z" fill="white"/>
<path d="M152.777 64.2662C151.281 65.2172 149.65 66.0325 147.883 65.489C147.068 65.2172 146.66 64.6738 146.388 63.8586C145.98 64.1303 145.709 64.2662 145.437 64.402C144.078 65.2172 142.718 65.6249 141.087 65.6249C138.777 65.489 137.146 63.9944 136.738 61.9564C136.33 59.9183 137.281 58.2879 138.912 56.9292C140.272 55.9781 141.903 55.4346 143.534 54.8912C144.485 54.6194 145.301 54.2118 146.252 53.9401C146.252 52.5814 146.524 51.3586 145.301 50.2716C144.757 49.7281 144.078 49.5922 143.398 49.5922C141.631 49.4564 140 50.1357 138.641 51.2227C138.097 51.6303 137.553 52.1738 136.874 52.8531C136.874 52.5814 136.874 52.4455 136.874 52.3096C136.874 51.3586 136.874 50.4075 136.874 49.4564C136.874 48.777 137.146 48.2336 137.689 47.8259C138.912 46.8749 140.272 46.3314 141.903 46.1955C143.534 46.0596 145.165 46.0596 146.66 46.739C148.563 47.5542 149.65 48.9129 149.922 50.9509C149.922 51.4944 150.058 51.902 150.058 52.4455C150.058 55.5705 150.058 58.5596 150.058 61.6846C150.058 61.9564 150.058 62.2281 150.194 62.6357C150.33 63.0433 150.602 63.3151 151.01 63.0433C151.417 62.9075 151.825 62.6357 152.369 62.364C152.505 62.2281 152.641 62.2281 152.912 62.0922C152.777 62.7716 152.777 63.5868 152.777 64.2662ZM146.252 56.114C145.845 56.2499 145.437 56.3857 145.165 56.5216C143.942 56.9292 142.718 57.3368 141.631 58.152C140.544 58.9672 140.272 59.9183 140.544 61.277C140.679 61.6846 140.951 62.2281 141.359 62.4999C142.039 63.0433 142.854 63.1792 143.806 63.0433C144.757 62.9075 145.573 62.364 146.252 61.6846C146.252 59.7825 146.252 58.0162 146.252 56.114Z" fill="white"/>
<path d="M166.505 46.4676C166.505 47.6904 166.505 48.7773 166.505 49.8643C164.466 49.8643 162.563 49.8643 160.524 49.8643C160.524 50.136 160.524 50.2719 160.524 50.4078C160.524 53.261 160.524 56.2502 160.524 59.1034C160.524 59.7828 160.66 60.3263 160.932 61.0056C161.34 61.9567 162.155 62.3643 163.107 62.3643C164.194 62.3643 165.282 62.0926 166.369 61.685C166.777 61.5491 167.049 61.2773 167.592 61.1415C167.592 62.3643 167.592 63.4513 167.592 64.6741C166.913 65.0817 166.097 65.4893 165.282 65.6252C163.651 66.0328 162.155 66.0328 160.524 65.6252C158.485 64.9458 157.126 63.5871 156.99 61.4132C156.854 60.1904 156.854 59.1034 156.854 57.8806C156.854 55.435 156.854 53.1252 156.854 50.6795C156.854 50.5436 156.854 50.2719 156.854 50.0002C155.767 50.0002 154.68 50.0002 153.728 50.0002C153.592 49.5926 153.728 49.4567 153.864 49.3208C155.223 47.9621 156.583 46.7393 157.806 45.3806C158.621 44.5654 159.437 43.7502 160.252 42.935C160.388 42.7991 160.524 42.7991 160.66 42.5273C160.66 43.886 160.66 45.1089 160.66 46.4676C162.563 46.4676 164.466 46.4676 166.505 46.4676Z" fill="white"/>
<path d="M118.932 61.1411C118.932 62.2281 118.932 63.4509 118.932 64.6737C118.524 64.8096 117.981 65.0813 117.437 65.3531C115.398 66.0324 113.359 66.1683 111.32 65.2172C109.553 64.402 108.466 63.0433 108.33 61.1411C108.194 57.6085 108.194 54.0759 108.194 50.5433C108.194 50.4074 108.194 50.1357 108.194 49.8639C107.107 49.8639 106.02 49.8639 104.932 49.8639C105.068 49.5922 105.068 49.3205 105.204 49.1846C107.379 47.0107 109.553 44.8368 111.864 42.527C111.864 42.527 112 42.527 112 42.3911C112 43.7498 112 44.9726 112 46.3313C114.039 46.3313 115.942 46.3313 117.981 46.3313C117.981 47.5542 117.981 48.6411 117.981 49.7281C115.942 49.7281 114.039 49.7281 112 49.7281C112 49.9998 112 50.1357 112 50.2715C112 52.9889 112 55.7063 112 58.5596C112 59.1031 112 59.7824 112.136 60.3259C112.544 61.8205 113.631 62.4998 115.126 62.2281C115.806 62.0922 116.35 61.9563 117.029 61.8205C117.709 61.8205 118.253 61.4129 118.932 61.1411Z" fill="white"/>
<path d="M121.923 46.4675C123.146 46.4675 124.369 46.4675 125.728 46.4675C125.728 47.6903 125.728 49.049 125.728 50.4077C125.864 50.2718 126 50.2718 126 50.1359C126.544 49.4566 127.088 48.6414 127.631 47.962C128.719 46.8751 129.806 45.924 131.573 46.0599C132.66 46.1957 133.476 46.4675 134.291 47.1468C134.699 47.4185 135.107 47.8262 135.651 48.2338C134.971 49.3207 134.291 50.4077 133.612 51.4946C133.068 51.087 132.66 50.8153 132.117 50.4077C131.165 49.7283 130.078 49.4566 128.855 49.8642C127.767 50.2718 126.952 51.087 126.408 52.174C125.864 53.1251 125.592 54.212 125.592 55.4349C125.592 58.5599 125.592 61.6849 125.592 64.8099C125.592 64.9457 125.592 65.2175 125.592 65.3533C124.369 65.3533 123.01 65.3533 121.787 65.3533C121.923 59.1033 121.923 52.8533 121.923 46.4675Z" fill="white"/>
<path d="M111.185 19.7012C111.864 19.7012 112.408 19.7012 113.087 19.7012C113.087 22.1468 113.087 24.4566 113.087 26.7664C112.408 26.7664 111.864 26.7664 111.185 26.7664C111.185 24.4566 111.185 22.011 111.185 19.7012Z" fill="white"/>
<path d="M118.388 12.3643C120.835 12.3643 123.145 12.3643 125.456 12.3643C125.456 13.0436 125.456 13.5871 125.456 14.2664C123.145 14.2664 120.699 14.2664 118.388 14.2664C118.388 13.723 118.388 13.0436 118.388 12.3643Z" fill="white"/>
<path d="M105.883 12.3643C105.883 13.0436 105.883 13.5871 105.883 14.2664C103.573 14.2664 101.126 14.2664 98.8154 14.2664C98.8154 13.5871 98.8154 13.0436 98.8154 12.3643C101.126 12.3643 103.437 12.3643 105.883 12.3643Z" fill="white"/>
<path d="M113.087 7.06522C112.408 7.06522 111.864 7.06522 111.185 7.06522C111.185 4.61956 111.185 2.30978 111.185 0C111.864 0 112.408 0 113.087 0C113.087 2.30978 113.087 4.75543 113.087 7.06522Z" fill="white"/>
<path d="M120.835 23.3696C119.204 21.7392 117.573 20.1088 115.942 18.4783C116.35 18.0707 116.757 17.6631 117.165 17.1196C118.796 18.7501 120.563 20.5164 122.194 22.1468C121.787 22.5544 121.379 22.962 120.835 23.3696Z" fill="white"/>
<path d="M102.078 4.6198C102.485 4.21219 102.893 3.80458 103.301 3.39697C104.932 5.02741 106.563 6.65784 108.33 8.28828C107.786 8.69589 107.379 9.10349 106.971 9.5111C105.34 7.88067 103.709 6.25023 102.078 4.6198Z" fill="white"/>
<path d="M120.835 3.26074C121.243 3.66835 121.651 4.07596 122.058 4.48357C120.427 6.114 118.796 7.74444 117.165 9.37487C116.757 8.96726 116.35 8.55966 115.942 8.15205C117.573 6.65748 119.204 5.02705 120.835 3.26074Z" fill="white"/>
<path d="M103.301 23.3696C102.893 22.962 102.485 22.5544 102.078 22.0109C103.709 20.3805 105.34 18.7501 106.971 17.1196C107.379 17.5272 107.786 17.9348 108.33 18.4783C106.699 20.1088 104.932 21.7392 103.301 23.3696Z" fill="white"/>
<path d="M0 64.9458C0 50.6795 0 36.0056 0 21.7393C0.135922 21.7393 0.407767 21.7393 0.543689 21.7393C3.53398 21.7393 6.52427 21.7393 9.37864 21.7393C13.3204 21.8751 17.2621 22.2827 20.932 23.9132C26.6408 26.3588 30.1748 30.7066 31.6699 36.6849C32.3495 39.5382 32.4854 42.5273 32.3495 45.3806C32.2136 47.8262 31.8058 50.136 30.8544 52.4458C29.2233 56.5219 26.5049 59.6469 22.699 61.8208C19.8447 63.4512 16.7184 64.2664 13.4563 64.5382C10.3301 64.9458 7.20388 64.9458 3.94175 64.9458C2.71845 64.9458 1.49515 64.9458 0.407767 64.9458C0.271845 64.9458 0.135922 64.9458 0 64.9458ZM8.42718 57.3371C8.56311 57.3371 8.56311 57.3371 8.69903 57.3371C10.466 57.3371 12.0971 57.3371 13.8641 57.0653C17.9417 56.2501 20.7961 54.0762 22.5631 50.2719C23.3786 48.3697 23.6505 46.4675 23.7864 44.4295C23.9223 41.848 23.6505 39.2664 22.8349 36.8208C21.6116 33.424 19.165 30.9784 15.6311 29.7556C13.3204 28.9403 11.0097 28.9403 8.69903 29.0762H8.56311C8.42718 38.4512 8.42718 47.8262 8.42718 57.3371Z" fill="white"/>
<path d="M49.2041 21.6035C49.34 21.6035 49.6119 21.6035 49.7478 21.6035C53.0099 21.6035 56.2721 21.6035 59.5342 21.6035C62.5245 21.6035 65.5148 22.147 68.3691 23.5057C71.9031 25.4079 73.942 28.397 74.4857 32.3372C74.7575 34.3753 74.7575 36.5492 74.2138 38.5872C73.3983 41.7122 71.3594 44.022 68.5051 45.7883C66.4662 47.0111 64.1556 47.6905 61.709 47.8263C60.4857 47.9622 59.3983 47.9622 58.175 47.9622C58.0391 47.9622 57.9031 47.9622 57.6313 47.9622C57.6313 50.4079 57.6313 52.8535 57.6313 55.435C54.7769 56.3861 52.0585 57.4731 49.2041 58.4242C49.2041 46.06 49.2041 33.8318 49.2041 21.6035ZM57.6313 28.397C57.6313 32.6089 57.6313 36.8209 57.6313 41.0329C59.2624 41.0329 60.8934 41.1687 62.5245 40.6253C64.1556 40.0818 65.107 38.9948 65.5148 37.3644C65.9225 35.734 65.9225 34.1035 65.5148 32.609C65.107 31.1144 64.2915 30.0274 62.9323 29.2122C61.3012 28.397 59.5342 28.397 57.6313 28.397Z" fill="white"/>
<path d="M84.4076 45.1086C86.8542 43.3423 89.3008 41.576 91.7474 39.6738C92.0193 39.8097 92.2911 39.9456 92.6989 40.2173C94.8736 41.4401 96.9125 42.7988 98.6795 44.4293C100.718 46.3314 101.942 48.7771 102.213 51.6303C102.485 53.9401 102.213 56.114 101.398 58.288C100.175 61.5488 97.9999 63.7227 94.7377 64.8097C93.1067 65.489 91.3397 65.6249 89.5727 65.7608C87.1261 65.8967 84.5436 65.7608 82.2329 64.9456C79.5144 64.1303 77.0678 62.6358 75.4368 60.1901C75.3008 59.9184 75.1649 59.6467 74.8931 59.3749C76.6601 57.4727 78.4271 55.4347 80.0581 53.5325C80.4659 54.076 80.7377 54.7553 81.1455 55.163C82.9125 57.201 85.0872 58.4238 87.8057 58.4238C88.7571 58.4238 89.7086 58.4238 90.6601 58.0162C92.2911 57.4727 93.3785 56.114 93.5144 54.3477C93.7863 52.038 92.6989 50.5434 91.0678 49.1847C89.1649 47.6901 86.9902 46.4673 84.8154 45.2445C84.6795 45.2445 84.5436 45.1086 84.4076 45.1086Z" fill="white"/>
<path d="M100.719 26.2229C99.0876 28.1251 97.3206 29.8914 95.6896 31.7935C95.1459 31.2501 94.874 30.5707 94.3303 30.1631C92.5634 28.5327 90.3886 27.7175 87.942 28.1251C84.8158 28.6686 83.4566 31.7935 85.0876 34.5109C85.7672 35.462 86.5828 36.2772 87.3983 36.9566C87.5342 37.0925 87.8061 37.2283 88.0779 37.3642C85.7672 39.2664 83.4566 41.0327 81.01 42.6631C80.6022 42.3914 80.1944 41.9838 79.7867 41.712C76.9323 39.1305 75.709 35.8696 75.709 32.0653C75.8449 26.7664 79.107 22.5544 84.408 21.1957C87.8061 20.2446 91.34 20.2446 94.7381 21.4675C97.0488 22.2827 98.9517 23.7772 100.447 25.6794C100.583 25.9512 100.583 26.087 100.719 26.2229Z" fill="white"/>
<path d="M36.0195 61.9567C36.0195 53.3969 36.0195 45.1088 36.0195 36.8208C38.738 36.8208 41.3205 36.8208 43.903 36.8208C43.903 44.5654 43.903 52.3099 43.903 60.0545C41.3205 60.598 38.6021 61.2773 36.0195 61.9567Z" fill="white"/>
<path d="M44.5826 25.4077C44.5826 27.9892 42.5437 30.0272 39.9612 30.0272C37.3787 30.0272 35.3398 27.9892 35.3398 25.4077C35.3398 22.8261 37.3787 20.7881 39.9612 20.7881C42.5437 20.7881 44.5826 22.8261 44.5826 25.4077Z" fill="white"/>
<path d="M49.4756 64.81C49.4756 63.4513 49.4756 62.0926 49.4756 60.7339C52.194 59.9187 54.9125 59.1034 57.7668 58.1523C57.7668 60.3263 57.7668 62.5002 57.7668 64.81C54.9125 64.81 52.194 64.81 49.4756 64.81Z" fill="white"/>
<path d="M36.1553 63.7227C38.7378 63.1792 41.4562 62.6358 44.0388 62.0923C44.0388 63.0434 44.0388 63.8586 44.0388 64.8097C41.4562 64.8097 38.7378 64.8097 36.1553 64.8097C36.1553 64.5379 36.1553 64.1303 36.1553 63.7227Z" fill="white"/>
</g>
<defs>
<clipPath id="clip0_1_365">
<rect width="224" height="75" fill="white"/>
</clipPath>
</defs>
</svg>
